<svg xmlns="http://www.w3.org/2000/svg" width="1200" height="300"><rect width="1200" height="300" rx="28" fill="#07111f"/><text x="600" y="48" fill="#fff" font-family="Arial" font-size="27" font-weight="700" text-anchor="middle">END-TO-END CI/CD LIFECYCLE</text><g font-family="Arial" text-anchor="middle"><g fill="#7dd3fc" font-size="14"><text x="100" y="100">SOURCE</text><text x="245" y="100">BUILD</text><text x="390" y="100">QUALITY</text><text x="535" y="100">PACKAGE</text><text x="680" y="100">REGISTRY</text><text x="825" y="100">DEPLOY</text><text x="970" y="100">SCALE</text><text x="1110" y="100">OBSERVE</text></g><g fill="white" font-size="18" font-weight="700"><text x="100" y="135">GitHub</text><text x="245" y="135">Maven</text><text x="390" y="135">SonarQube</text><text x="535" y="135">Docker</text><text x="680" y="135">DockerHub</text><text x="825" y="135">AWS / EKS</text><text x="970" y="135">Kubernetes</text><text x="1110" y="135">Monitoring</text></g><g stroke="#38bdf8" stroke-width="3"><path d="M125 128h80"/><path d="M270 128h80"/><path d="M415 128h80"/><path d="M560 128h80"/><path d="M705 128h80"/><path d="M850 128h80"/><path d="M995 128h75"/></g><text x="600" y="205" fill="#94a3b8" font-family="Arial" font-size="15" text-anchor="middle">COMMIT → TEST → BUILD → SCAN → PUSH → DEPLOY → HEALTH CHECK → FEEDBACK</text><text x="600" y="245" fill="#e0f2fe" font-family="Arial" font-size="16" font-weight="700" text-anchor="middle">AUTOMATION FIRST • FAST FEEDBACK • REPEATABLE RELEASES</text></g></svg>